HIERARCHY
ROOT Hips
{
    OFFSET   0.000000   0.000000   0.000000
    CHANNELS 6 Xposition Yposition Zposition Zrotation Xrotation Yrotation
    JOINT Chest
    {
        OFFSET   0.000000   8.007230   0.000000
        CHANNELS 3 Zrotation Xrotation Yrotation
        JOINT Chest2
        {
            OFFSET   0.000000  22.077100   0.000000
            CHANNELS 3 Zrotation Xrotation Yrotation
            JOINT Neck
            {
                OFFSET   0.000000  23.254700   0.000000
                CHANNELS 3 Zrotation Xrotation Yrotation
                JOINT Head
                {
                    OFFSET   0.000010  14.370000   1.956610
                    CHANNELS 3 Zrotation Xrotation Yrotation
                    End Site
                    {
                        OFFSET   0.000000  19.566000   0.000000
                    }
                }
            }
            JOINT LeftCollar
            {
                OFFSET   3.911900  19.017000  -0.467063
                CHANNELS 3 Zrotation Xrotation Yrotation
                JOINT LeftShoulder
                {
                    OFFSET  10.383700   0.000000   0.000000
                    CHANNELS 3 Zrotation Xrotation Yrotation
                    JOINT LeftElbow
                    {
                        OFFSET  26.662100   0.001671   0.000522
                        CHANNELS 3 Zrotation Xrotation Yrotation
                        JOINT LeftWrist
                        {
                            OFFSET  28.869000   0.000037  -0.000114
                            CHANNELS 3 Zrotation Xrotation Yrotation
                            JOINT LeftFinger0
                            {
                                OFFSET   2.044650  -2.323450   3.252850
                                CHANNELS 3 Zrotation Xrotation Yrotation
                                JOINT LeftFinger01
                                {
                                    OFFSET   3.088140   0.000000   0.000000
                                    CHANNELS 3 Zrotation Xrotation Yrotation
                                    JOINT LeftFinger02
                                    {
                                        OFFSET   2.639460   0.000000   0.000000
                                        CHANNELS 3 Zrotation Xrotation Yrotation
                                        End Site
                                        {
                                            OFFSET   2.582190   0.000000   0.000000
                                        }
                                    }
                                }
                            }
                            JOINT LeftFinger1
                            {
                                OFFSET   8.364480   0.000000   3.252850
                                CHANNELS 3 Zrotation Xrotation Yrotation
                                JOINT LeftFinger11
                                {
                                    OFFSET   4.646930   0.000000   0.000000
                                    CHANNELS 3 Zrotation Xrotation Yrotation
                                    JOINT LeftFinger12
                                    {
                                        OFFSET   2.323470   0.000000   0.000000
                                        CHANNELS 3 Zrotation Xrotation Yrotation
                                        End Site
                                        {
                                            OFFSET   2.273050   0.000000   0.000000
                                        }
                                    }
                                }
                            }
                            JOINT LeftFinger2
                            {
                                OFFSET   8.364490   0.000016   1.078090
                                CHANNELS 3 Zrotation Xrotation Yrotation
                                JOINT LeftFinger21
                                {
                                    OFFSET   5.111620   0.000000   0.000000
                                    CHANNELS 3 Zrotation Xrotation Yrotation
                                    JOINT LeftFinger22
                                    {
                                        OFFSET   2.788150   0.000013   0.000000
                                        CHANNELS 3 Zrotation Xrotation Yrotation
                                        End Site
                                        {
                                            OFFSET   2.727660   0.000000   0.000000
                                        }
                                    }
                                }
                            }
                            JOINT LeftFinger3
                            {
                                OFFSET   7.899780   0.000016  -1.078090
                                CHANNELS 3 Zrotation Xrotation Yrotation
                                JOINT LeftFinger31
                                {
                                    OFFSET   4.646930   0.000000   0.000000
                                    CHANNELS 3 Zrotation Xrotation Yrotation
                                    JOINT LeftFinger32
                                    {
                                        OFFSET   2.323470   0.000000   0.000000
                                        CHANNELS 3 Zrotation Xrotation Yrotation
                                        End Site
                                        {
                                            OFFSET   2.273050   0.000000   0.000000
                                        }
                                    }
                                }
                            }
                            JOINT LeftFinger4
                            {
                                OFFSET   7.435080   0.000000  -3.252850
                                CHANNELS 3 Zrotation Xrotation Yrotation
                                JOINT LeftFinger41
                                {
                                    OFFSET   3.717550   0.000000   0.000000
                                    CHANNELS 3 Zrotation Xrotation Yrotation
                                    JOINT LeftFinger42
                                    {
                                        OFFSET   1.858760   0.000000   0.000000
                                        CHANNELS 3 Zrotation Xrotation Yrotation
                                        End Site
                                        {
                                            OFFSET   1.818440   0.000000   0.000000
                                        }
                                    }
                                }
                            }
                        }
                    }
                }
            }
            JOINT RightCollar
            {
                OFFSET  -3.911900  19.017000  -0.467064
                CHANNELS 3 Zrotation Xrotation Yrotation
                JOINT RightShoulder
                {
                    OFFSET -10.383700   0.000000   0.000000
                    CHANNELS 3 Zrotation Xrotation Yrotation
                    JOINT RightElbow
                    {
                        OFFSET -26.662100   0.001633   0.000260
                        CHANNELS 3 Zrotation Xrotation Yrotation
                        JOINT RightWrist
                        {
                            OFFSET -28.869000  -0.000045  -0.000080
                            CHANNELS 3 Zrotation Xrotation Yrotation
                            JOINT RightFinger0
                            {
                                OFFSET  -2.044660  -2.323490   3.252850
                                CHANNELS 3 Zrotation Xrotation Yrotation
                                JOINT RightFinger01
                                {
                                    OFFSET  -3.088140   0.000000   0.000000
                                    CHANNELS 3 Zrotation Xrotation Yrotation
                                    JOINT RightFinger02
                                    {
                                        OFFSET  -2.639450   0.000000   0.000000
                                        CHANNELS 3 Zrotation Xrotation Yrotation
                                        End Site
                                        {
                                            OFFSET  -2.582190   0.000000   0.000000
                                        }
                                    }
                                }
                            }
                            JOINT RightFinger1
                            {
                                OFFSET  -8.364480   0.000000   3.252850
                                CHANNELS 3 Zrotation Xrotation Yrotation
                                JOINT RightFinger11
                                {
                                    OFFSET  -4.646920   0.000000   0.000000
                                    CHANNELS 3 Zrotation Xrotation Yrotation
                                    JOINT RightFinger12
                                    {
                                        OFFSET  -2.323470   0.000000   0.000000
                                        CHANNELS 3 Zrotation Xrotation Yrotation
                                        End Site
                                        {
                                            OFFSET  -2.273050   0.000000   0.000000
                                        }
                                    }
                                }
                            }
                            JOINT RightFinger2
                            {
                                OFFSET  -8.364480   0.000000   1.078090
                                CHANNELS 3 Zrotation Xrotation Yrotation
                                JOINT RightFinger21
                                {
                                    OFFSET  -5.111610   0.000000   0.000000
                                    CHANNELS 3 Zrotation Xrotation Yrotation
                                    JOINT RightFinger22
                                    {
                                        OFFSET  -2.788160   0.000000   0.000000
                                        CHANNELS 3 Zrotation Xrotation Yrotation
                                        End Site
                                        {
                                            OFFSET  -2.727660   0.000000   0.000000
                                        }
                                    }
                                }
                            }
                            JOINT RightFinger3
                            {
                                OFFSET  -7.899780   0.000000  -1.078090
                                CHANNELS 3 Zrotation Xrotation Yrotation
                                JOINT RightFinger31
                                {
                                    OFFSET  -4.646930   0.000000   0.000000
                                    CHANNELS 3 Zrotation Xrotation Yrotation
                                    JOINT RightFinger32
                                    {
                                        OFFSET  -2.323470   0.000000   0.000000
                                        CHANNELS 3 Zrotation Xrotation Yrotation
                                        End Site
                                        {
                                            OFFSET  -2.273050   0.000000   0.000000
                                        }
                                    }
                                }
                            }
                            JOINT RightFinger4
                            {
                                OFFSET  -7.435090   0.000000  -3.252850
                                CHANNELS 3 Zrotation Xrotation Yrotation
                                JOINT RightFinger41
                                {
                                    OFFSET  -3.717550   0.000000   0.000000
                                    CHANNELS 3 Zrotation Xrotation Yrotation
                                    JOINT RightFinger42
                                    {
                                        OFFSET  -1.858760   0.000000   0.000000
                                        CHANNELS 3 Zrotation Xrotation Yrotation
                                        End Site
                                        {
                                            OFFSET  -1.818440   0.000000   0.000000
                                        }
                                    }
                                }
                            }
                        }
                    }
                }
            }
        }
    }
    JOINT LeftHip
    {
        OFFSET   9.782990   0.000000   0.000000
        CHANNELS 3 Zrotation Xrotation Yrotation
        JOINT LeftKnee
        {
            OFFSET  -0.000063 -41.789100   0.001657
            CHANNELS 3 Zrotation Xrotation Yrotation
            JOINT LeftAnkle
            {
                OFFSET   0.000078 -41.133200  -0.000113
                CHANNELS 3 Zrotation Xrotation Yrotation
                JOINT LeftToe
                {
                    OFFSET   0.000000  -6.358970  14.674500
                    CHANNELS 3 Zrotation Xrotation Yrotation
                    End Site
                    {
                        OFFSET   0.000000   0.000000   3.913200
                    }
                }
            }
        }
    }
    JOINT RightHip
    {
        OFFSET  -9.782990   0.000000   0.000000
        CHANNELS 3 Zrotation Xrotation Yrotation
        JOINT RightKnee
        {
            OFFSET   0.000053 -41.789200   0.000277
            CHANNELS 3 Zrotation Xrotation Yrotation
            JOINT RightAnkle
            {
                OFFSET   0.000030 -41.133200  -0.000150
                CHANNELS 3 Zrotation Xrotation Yrotation
                JOINT RightToe
                {
                    OFFSET   0.000000  -6.358960  14.674500
                    CHANNELS 3 Zrotation Xrotation Yrotation
                    End Site
                    {
                        OFFSET   0.000000   0.000000   3.913200
                    }
                }
            }
        }
    }
}
MOTION
Frames: 6
Frame Time:   0.016667
  4.119410  89.281800  -0.462307  -5.905530 -14.025200  -7.822140  -0.109809   6.323890   2.358550  -0.487735  12.637800   4.773420   5.276300  -0.244955   0.022635   8.668390  -0.483990   0.698459  -2.797420  -1.022900  -0.756648 -73.525200  22.203000  -3.705680  -0.286569  -5.030270 -14.566700  10.733200  -4.822920   4.434260  42.372200  38.943900 -71.322300 -31.780400   0.000000   0.000105 -10.890200   0.002812   0.000000 -30.452300   5.182020  -8.733770 -25.239600   0.003292   0.006745 -17.667700  -0.002992   0.005103 -28.313600  -1.437720   2.666450 -34.624600   0.001702   0.000746 -23.060000  -0.003518   0.000308 -27.853100  -1.416240   2.677920 -31.289400   0.000698  -0.000310 -20.838800   0.000998   0.003273 -28.730400  -1.457110   2.655950 -43.146500  -0.007720   0.000778 -28.735500  -0.005995   0.000174   1.808660 -16.326400   3.072370   8.730960 -31.893300  78.496700 -20.893700   3.327800  10.683700 -19.607800   0.367055  -2.740100 -30.522800  48.823700  72.551000  62.010700  -0.008588  -0.001889  34.639100   0.003982  -0.007053  -3.172320  -1.034450  17.619000  -0.000000   0.002852   0.002380   0.000000  -0.000369   0.002939  87.462000  -0.006673  -0.001174  87.462000   0.004230   0.006494  65.596500   0.002678  -0.002035  88.996100  -4.999370  -0.087077  90.538500  -0.003929   0.001677  67.903900  -0.004413   0.000875  88.979800  -9.995760  -0.177148 110.000000   0.001043  -0.002608  80.000000   0.001895   0.012890   1.747730  17.035300   7.093010  -0.053827   0.049329   3.285000   0.307020  -3.449040   1.920450  -0.000000   0.000000   0.000000   3.925100  10.296500   2.284420  -4.363130  10.861400  -7.140590   3.600010  -6.560140   2.606740   0.000000   0.000000   0.000000
  4.198990  89.281000  -0.462490  -5.903250 -14.046600  -7.728710  -0.124648   6.337370   2.431670  -0.522666  12.663300   4.923050   5.320690  -0.280591   0.026164   8.742800  -0.554306   0.379654  -2.803740  -1.101690  -0.879905 -73.473300  22.113500  -3.667080  -0.287559  -4.985180 -14.608700  10.713300  -4.795180   4.412570  42.375400  39.000300 -71.412300 -31.798200   0.000000   0.000052 -10.899100   0.002778  -0.000000 -30.479000   5.183980  -8.728430 -25.261500   0.003488   0.006850 -17.683000  -0.003019   0.005387 -28.318100  -1.444870   2.679120 -34.667100   0.001632   0.000756 -23.088300  -0.003507   0.000263 -27.860400  -1.423410   2.690580 -31.334500   0.000680  -0.000323 -20.868800   0.000968   0.003244 -28.771800  -1.465950   2.667700 -43.210800  -0.007719   0.000778 -28.778300  -0.005994   0.000126   1.942160 -16.295300   3.033040   9.290620 -31.992400  78.760000 -20.901600   2.844710  11.169000 -20.244400   0.623895  -2.872350 -31.741700  49.795900  74.033700  60.578500  -0.007792  -0.000779  33.685300   0.004022  -0.007124  -3.512790  -1.180350  18.157500  -0.000000   0.002956   0.002411   0.000000  -0.000375   0.002938  87.533500  -0.006931  -0.001113  87.533400   0.004311   0.006277  65.650100   0.002625  -0.002590  88.996100  -4.999120  -0.086990  90.673100  -0.003860   0.001791  68.004800  -0.004434   0.000774  88.979700  -9.995500  -0.177173 110.000000   0.001063  -0.002418  80.000000   0.001959   0.012892   1.723860  17.055600   7.060430  -0.085146   0.054055   3.182540   0.332208  -3.465430   1.968350  -0.000000   0.000000   0.000000   3.897840  10.295400   2.285100  -4.383280  10.923200  -7.162150   3.589510  -6.593180   2.530540   0.000000   0.000000   0.000000
  4.280550  89.280700  -0.463770  -5.899520 -14.058400  -7.637110  -0.135360   6.359120   2.503210  -0.557320  12.706100   5.068900   5.344190  -0.344157   0.032287   8.780810  -0.679777   0.072185  -2.820880  -1.223740  -1.006290 -73.396100  22.041500  -3.646310  -0.300895  -4.943360 -14.687700  10.692700  -4.754730   4.393480  42.438000  39.088300 -71.533800 -31.816000   0.000000   0.000000 -10.908000   0.002738  -0.000000 -30.506300   5.184370  -8.719170 -25.283300   0.003684   0.006952 -17.698300  -0.003041   0.005673 -28.322400  -1.454910   2.697190 -34.709500   0.001562   0.000772 -23.116600  -0.003501   0.000216 -27.867500  -1.433440   2.708650 -31.379700   0.000663  -0.000329 -20.898800   0.000934   0.003215 -28.806400  -1.477620   2.684750 -43.261600  -0.007718   0.000778 -28.812200  -0.005993   0.000078   2.095580 -16.279100   3.006510   9.695680 -32.035100  78.875000 -21.024300   2.432310  11.838700 -21.109900   1.151160  -2.891640 -33.368600  50.938400  76.006400  59.547500  -0.004936  -0.000363  32.998600   0.004046  -0.007185  -3.619640  -1.243080  18.920500  -0.000000   0.003058   0.002440   0.000000  -0.000383   0.002935  87.698300  -0.007177  -0.001048  87.698200   0.004393   0.006041  65.773700   0.002574  -0.003135  88.996100  -4.998850  -0.086914  90.807600  -0.003784   0.001876  68.105700  -0.004452   0.000668  88.979600  -9.995250  -0.177196 110.000000   0.001083  -0.002233  80.000000   0.002021   0.012892   1.698520  17.063300   7.030230  -0.115312   0.058782   3.079830   0.363230  -3.478570   2.017290   0.000000   0.000000  -0.000000   3.862980  10.287500   2.286150  -4.391710  10.980900  -7.201200   3.580010  -6.618360   2.466720  -0.000000   0.000000  -0.000000
  4.369590  89.280400  -0.471852  -5.899400 -14.053500  -7.547670  -0.133382   6.378050   2.574990  -0.563939  12.743900   5.213780   5.333140  -0.408487   0.038607   8.762280  -0.806779  -0.221522  -2.855310  -1.330870  -1.163060 -73.299100  21.989100  -3.649610  -0.320438  -4.897070 -14.772200  10.697400  -4.731990   4.375110  42.526700  39.151200 -71.573400 -31.813100   0.000000   0.000044 -10.906600   0.002696   0.000000 -30.487800   5.173580  -8.708770 -25.267000   0.003885   0.007050 -17.686900  -0.003064   0.005962 -28.318200  -1.459350   2.706080 -34.673900   0.001494   0.000789 -23.092900  -0.003501   0.000171 -27.861800  -1.437710   2.717620 -31.346700   0.000646  -0.000328 -20.876900   0.000897   0.003186 -28.784800  -1.480920   2.694210 -43.229400  -0.007719   0.000780 -28.790700  -0.005993   0.000039   2.241710 -16.268800   2.964540   9.875240 -32.016200  78.769900 -21.350100   2.570520  12.454300 -22.261100   1.845320  -2.490600 -33.755800  51.174200  76.468100  59.669800   0.002342  -0.006326  33.080100   0.003525  -0.007244  -2.992380  -1.039270  19.281100  -0.000000   0.003146   0.002462   0.000000  -0.000395   0.002913  87.967600  -0.007420  -0.000963  87.967500   0.004468   0.005778  65.975700   0.002526  -0.003668  88.996100  -4.998590  -0.086860  90.688200  -0.003694   0.001934  68.016200  -0.004461   0.000554  88.979500  -9.995000  -0.177207 110.000000   0.001113  -0.002052  80.000000   0.002084   0.012893   1.673470  17.061200   7.000680  -0.143328   0.045398   2.990810   0.403501  -3.484060   2.056060   0.000000   0.000000   0.000000   3.820890  10.262500   2.286990  -4.387350  11.034500  -7.245080   3.579760  -6.637960   2.416780  -0.000000   0.000000   0.000000
  4.463220  89.280200  -0.478837  -5.892150 -14.036200  -7.456690  -0.121726   6.388760   2.632770  -0.545920  12.765100   5.329450   5.292520  -0.468395   0.043384   8.696570  -0.925336  -0.458548  -2.891690  -1.391880  -1.257250 -73.209000  21.935300  -3.660020  -0.325669  -4.824670 -14.866700  10.726600  -4.721880   4.365360  42.563000  39.197700 -71.571400 -31.797500   0.000000   0.000088 -10.898800   0.002653   0.000000 -30.451200   5.162740  -8.702270 -25.236300   0.004086   0.007144 -17.665400  -0.003076   0.006255 -28.310800  -1.460900   2.709570 -34.608500   0.001426   0.000811 -23.049300  -0.003501   0.000121 -27.851400  -1.439110   2.721180 -31.285000   0.000630  -0.000321 -20.835800   0.000856   0.003158 -28.744800  -1.481380   2.698360 -43.169400  -0.007720   0.000782 -28.750800  -0.005993  -0.000000   2.353590 -16.237900   2.938790   9.931630 -31.975600  78.562100 -21.717800   2.799210  13.011800 -23.369600   2.532000  -1.899630 -33.811600  51.207600  76.534700  59.998700   0.007884  -0.013422  33.299100   0.003003  -0.007297  -2.135430  -0.757188  19.416600  -0.000000   0.003228   0.002485   0.000000  -0.000410   0.002882  88.208500  -0.007647  -0.000875  88.208500   0.004546   0.005498  66.156300   0.002478  -0.004187  88.996100  -4.998310  -0.086836  90.472600  -0.003597   0.001968  67.854500  -0.004467   0.000438  88.979400  -9.994760  -0.177214 110.000000   0.001139  -0.001869  80.000000   0.002147   0.012893   1.645100  17.044200   6.974480  -0.172403   0.032012   2.908710   0.446684  -3.490230   2.084690   0.000000   0.000000   0.000000   3.770410  10.230200   2.287350  -4.382570  11.062600  -7.286200   3.587870  -6.646830   2.372570   0.000000   0.000000   0.000000
  4.561870  89.280100  -0.473957  -5.869640 -14.007900  -7.359750  -0.105927   6.380270   2.659250  -0.514250  12.748300   5.380750   5.208230  -0.505395   0.044471   8.558100  -0.999414  -0.588898  -2.914250  -1.385810  -1.256100 -73.162200  21.850900  -3.677390  -0.287156  -4.682910 -14.967900  10.802300  -4.770580   4.365780  42.629500  39.226700 -71.542400 -31.750000   0.000000   0.000044 -10.875100   0.002611  -0.000000 -30.399300   5.165690  -8.721850 -25.194800   0.004281   0.007237 -17.636300  -0.003071   0.006555 -28.302100  -1.444540   2.680170 -34.525000   0.001356   0.000838 -22.993600  -0.003502   0.000047 -27.838400  -1.422830   2.691750 -31.203000   0.000615  -0.000307 -20.781200   0.000814   0.003132 -28.693000  -1.463170   2.670050 -43.090800  -0.007719   0.000779 -28.698500  -0.005993  -0.000046   2.390440 -16.136000   2.940160   9.865390 -31.941300  78.305300 -22.019400   3.013890  13.419400 -24.003800   3.008960  -1.583360 -33.273400  50.808700  75.878700  60.606100   0.008260  -0.014745  33.703600   0.003502  -0.007338  -1.882730  -0.662352  19.262600   0.006588   0.003310   0.002515   0.004611  -0.000421   0.002856  88.284200  -0.007847  -0.000803  88.284300   0.004638   0.005209  66.213100   0.002431  -0.004685  88.996100  -4.998010  -0.086841  90.252200  -0.003501   0.001982  67.689200  -0.004470   0.000324  88.979300  -9.994500  -0.177219 110.000000   0.001148  -0.001669  80.000000   0.002208   0.012882   1.608450  17.004900   6.953870  -0.205008   0.037742   2.835590   0.488585  -3.505770   2.095130   0.000000   0.000000   0.000000   3.714420  10.204900   2.262100  -4.392170  11.060900  -7.305190   3.604790  -6.646690   2.324720  -0.000000   0.000000   0.000000
